<?xml version="1.0" encoding="UTF-8" standalone="no"?>
<!-- Generator: Adobe Illustrator 16.0.0, SVG Export Plug-In . SVG Version: 6.00 Build 0)  -->

<svg
   xmlns:dc="http://purl.org/dc/elements/1.1/"
   xmlns:cc="http://creativecommons.org/ns#"
   xmlns:rdf="http://www.w3.org/1999/02/22-rdf-syntax-ns#"
   xmlns:svg="http://www.w3.org/2000/svg"
   xmlns="http://www.w3.org/2000/svg"
   xmlns:sodipodi="http://sodipodi.sourceforge.net/DTD/sodipodi-0.dtd"
   xmlns:inkscape="http://www.inkscape.org/namespaces/inkscape"
   version="1.1"
   id="Layer_1"
   x="0px"
   y="0px"
   width="40"
   height="40"
   viewBox="0 0 40 40"
   enable-background="new 0 0 397 397"
   xml:space="preserve"
   inkscape:version="0.91 r13725"
   sodipodi:docname="lattes.svg"><metadata
     id="metadata3418"><rdf:RDF><cc:Work
         rdf:about=""><dc:format>image/svg+xml</dc:format><dc:type
           rdf:resource="http://purl.org/dc/dcmitype/StillImage" /><dc:title></dc:title></cc:Work></rdf:RDF></metadata><defs
     id="defs3416" /><sodipodi:namedview
     pagecolor="#ffffff"
     bordercolor="#666666"
     borderopacity="1"
     objecttolerance="10"
     gridtolerance="10"
     guidetolerance="10"
     inkscape:pageopacity="0"
     inkscape:pageshadow="2"
     inkscape:window-width="1301"
     inkscape:window-height="744"
     id="namedview3414"
     showgrid="false"
     fit-margin-top="0"
     fit-margin-left="-0.4"
     fit-margin-right="0"
     fit-margin-bottom="0"
     inkscape:zoom="1.5289673"
     inkscape:cx="198.5"
     inkscape:cy="198.5"
     inkscape:window-x="65"
     inkscape:window-y="24"
     inkscape:window-maximized="1"
     inkscape:current-layer="Layer_1" /><ellipse
     cx="19.948105"
     cy="20.378912"
     id="circle3406"
     style="fill:#8bb1dd"
     rx="19.948105"
     ry="19.621088" /><path
     d="M 19.311072,23.102241 C 18.693937,23.017628 18.087053,22.940824 17.482479,22.849786 14.907013,22.46201 12.333054,22.06425 9.7561812,21.685865 9.3901812,21.632092 9.2157232,21.493015 9.123168,21.123921 8.6813954,19.362669 8.3489605,17.589753 8.3421269,15.767809 l 0,-0.499473 c 0.066527,-0.447974 0.033766,-0.904843 0.090445,-1.353904 0.365799,-2.898287 1.5906223,-5.301549 4.2406553,-6.7925539 1.907883,-1.0733773 4.025096,-1.2564415 6.180396,-1.107084 2.876446,0.1994728 5.563361,1.0732784 8.161237,2.2501482 0.198878,0.09005 0.356152,0.2691598 0.53282,0.4066557 -0.0062,0.062175 -0.01236,0.1243493 -0.01869,0.1864251 -0.321782,0.03944 -0.645675,0.1246458 -0.965146,0.1111038 -1.536256,-0.065239 -3.07231,-0.2314004 -4.606455,-0.2100495 -0.849679,0.011862 -1.725084,0.2368369 -2.536173,0.5147941 -1.780155,0.609687 -2.532455,1.9971005 -2.651942,3.7639865 -0.133356,1.971796 0.318567,3.862439 0.940123,5.712554 0.402379,1.19743 0.899926,2.364118 1.383203,3.618188"
     id="path3408"
     inkscape:connector-curvature="0"
     style="fill:#ffffff" /><path
     d="m 9.1335189,22.312455 c 0.854804,0.189786 1.6014761,0.34537 2.3430231,0.521515 3.290684,0.78178 6.613224,1.016936 9.957069,0.437496 1.956422,-0.339044 3.818982,-0.976507 5.44106,-2.161285 2.392868,-1.748006 3.093915,-4.174201 1.998327,-6.896145 -0.159986,-0.397463 -0.337258,-0.78939 -0.470815,-1.195453 -0.09406,-0.286062 -0.127025,-0.591301 -0.216867,-1.03453 0.280982,0.110313 0.454234,0.130675 0.556135,0.22537 1.529824,1.420923 2.908103,2.95285 3.70673,4.911104 1.086644,2.663723 0.897112,5.267743 -0.325601,7.839934 -1.496661,3.148666 -4.02389,5.288205 -7.027964,6.953476 -3.19441,1.770643 -6.664677,2.76178 -10.239056,3.454103 -0.312336,0.06039 -0.378461,-0.09272 -0.463379,-0.298617 C 12.813316,31.248105 11.233346,27.427282 9.654682,23.605766 9.4921829,23.212554 9.3363163,22.816277 9.1335189,22.312455 Z"
     id="path3410"
     inkscape:connector-curvature="0"
     style="fill:#ffffff" /><path
     d="m 23.971493,19.426129 c -2.456582,0.03163 -5.262783,-1.928304 -5.711389,-4.359539 -0.324195,-1.756112 0.75642,-3.360198 2.56602,-3.652982 2.57627,-0.416738 5.626471,1.349259 6.512428,3.770609 0.741547,2.026656 -0.635727,4.043131 -2.881773,4.217694 -0.183502,0.01433 -0.367708,0.01858 -0.485286,0.02422 z"
     id="path3412"
     inkscape:connector-curvature="0"
     style="fill:#ffffff" /></svg>