<?xml version="1.0" encoding="utf-8"?>
<!-- Generator: Adobe Illustrator 16.0.0, SVG Export Plug-In . SVG Version: 6.00 Build 0)  -->
<!DOCTYPE svg PUBLIC "-//W3C//DTD SVG 1.1//EN" "http://www.w3.org/Graphics/SVG/1.1/DTD/svg11.dtd">
<svg version="1.1" id="Layer_1" xmlns="http://www.w3.org/2000/svg" xmlns:xlink="http://www.w3.org/1999/xlink" x="0px" y="0px"
	 width="397px" height="397px" viewBox="0 0 397 397" enable-background="new 0 0 397 397" xml:space="preserve">
<circle fill="#8BB1DD" cx="198.5" cy="198.5" r="198.5"/>
<path fill="#FFFFFF" d="M192.161,226.051c-6.141-0.856-12.18-1.633-18.196-2.554c-25.628-3.923-51.241-7.947-76.883-11.775
	c-3.642-0.544-5.378-1.951-6.299-5.685c-4.396-17.818-7.704-35.754-7.772-54.186v-5.053c0.662-4.532,0.336-9.154,0.9-13.697
	c3.64-29.321,15.828-53.634,42.198-68.718c18.985-10.859,40.053-12.711,61.5-11.2c28.623,2.018,55.36,10.858,81.211,22.764
	c1.979,0.911,3.544,2.723,5.302,4.114c-0.062,0.629-0.123,1.258-0.186,1.886c-3.202,0.399-6.425,1.261-9.604,1.124
	c-15.287-0.66-30.572-2.341-45.838-2.125c-8.455,0.12-17.166,2.396-25.237,5.208c-17.714,6.168-25.2,20.204-26.389,38.079
	c-1.327,19.948,3.17,39.075,9.355,57.792c4.004,12.114,8.955,23.917,13.764,36.604"/>
<path fill="#FFFFFF" d="M90.886,218.061c8.506,1.92,15.936,3.494,23.315,5.276c32.745,7.909,65.807,10.288,99.081,4.426
	c19.468-3.43,38.002-9.879,54.143-21.865c23.811-17.684,30.787-42.229,19.885-69.766c-1.592-4.021-3.356-7.986-4.685-12.094
	c-0.936-2.894-1.264-5.982-2.158-10.466c2.796,1.116,4.52,1.322,5.534,2.28c15.223,14.375,28.938,29.873,36.885,49.684
	c10.813,26.948,8.927,53.292-3.24,79.314c-14.893,31.854-40.041,53.499-69.934,70.346c-31.787,17.913-66.319,27.94-101.887,34.944
	c-3.108,0.611-3.766-0.938-4.611-3.021c-15.711-38.659-31.433-77.313-47.142-115.974C94.455,227.167,92.904,223.158,90.886,218.061z
	"/>
<path fill="#FFFFFF" d="M238.536,188.861c-24.445,0.32-52.369-19.508-56.833-44.104c-3.226-17.766,7.527-33.994,25.534-36.956
	c25.636-4.216,55.988,13.65,64.804,38.146c7.379,20.503-6.326,40.903-28.676,42.669
	C241.539,188.761,239.706,188.804,238.536,188.861z"/>
</svg>
