<svg xmlns="http://www.w3.org/2000/svg" viewBox="0 0 283.48 283.48"><defs><style>.cls-1{fill:#e0d5e9;}.cls-2{fill:#311a64;}</style></defs><title>lattes-logo</title><g id="Layer_2" data-name="Layer 2"><g id="Layer_1-2" data-name="Layer 1"><circle class="cls-1" cx="141.74" cy="141.74" r="141.74"/><path class="cls-2" d="M186.38,97.52a30.13,30.13,0,0,0-1.32-10.43c-1-3.16-2.26-6.25-3.27-9.41a20.49,20.49,0,0,1-.72-4c-.09-.79.54-1.07,1.31-.85,1.45.42,2.26,1.61,3.19,2.62,2.52,2.73,5,5.49,7.37,8.35a59.08,59.08,0,0,1,7.13,11.14,51.94,51.94,0,0,1,3.87,10.31c.39,1.47.53,3,.8,4.5.19,1,.45,2.07.6,3.11a21.8,21.8,0,0,1,.25,3.18,58.47,58.47,0,0,1-.26,7,41.73,41.73,0,0,1-1.51,7.14,77.57,77.57,0,0,1-5.94,13.89,63.51,63.51,0,0,1-7.08,10.3,77.6,77.6,0,0,1-13,12.3c-3.09,2.32-6.3,4.51-9.6,6.52-3.46,2.1-7,4-10.68,5.82-3.25,1.58-6.64,2.86-10,4.23q-2.95,1.2-6,2.24c-1.75.6-3.54,1.08-5.31,1.62s-3.63,1.14-5.47,1.65c-1.6.45-3.22.81-4.83,1.21s-3.23.82-4.86,1.16c-2.08.43-4.18.79-6.27,1.19s-4.08.76-6.1,1.18c-1,.21-1.21.12-1.58-.85-1.06-2.8-2.15-5.59-3.23-8.39-.9-2.34-1.77-4.69-2.67-7-.74-1.93-1.51-3.84-2.25-5.77s-1.39-3.78-2.1-5.66-1.51-4-2.26-6-1.46-3.93-2.2-5.89-1.45-3.76-2.17-5.64-1.5-4-2.26-5.95-1.49-3.86-2.22-5.79-1.44-3.87-2.16-5.81-1.39-3.66-2.06-5.51c-.29-.8-.1-1,.74-.8,2.46.63,4.9,1.3,7.35,1.94,1.72.45,3.44.9,5.17,1.28,3.44.77,6.87,1.54,10.33,2.21,2.25.44,4.54.68,6.81,1a156,156,0,0,0,15.8,1,90.16,90.16,0,0,0,12.35-.57,78.19,78.19,0,0,0,13.36-2.49A64.8,64.8,0,0,0,170.14,122a36.31,36.31,0,0,0,12.53-12A22.46,22.46,0,0,0,186.38,97.52Z"/><path class="cls-2" d="M121.34,82.28c.3,2.8.49,5.61.93,8.38.55,3.42,1.17,6.84,2,10.21.88,3.57,2,7.11,3.1,10.61,1,3,2.14,5.88,3.25,8.81.69,1.8,1.45,3.58,2.16,5.38.34.86.64,1.73.92,2.61s0,1.16-.86,1.14a13.26,13.26,0,0,1-2-.18c-4-.71-8-1.45-11.94-2.17-2.17-.39-4.34-.77-6.51-1.17-2.55-.47-5.08-1-7.63-1.43-3-.54-6.09-1-9.13-1.55-3.68-.65-7.36-1.33-11-2h-.08c-2.55-.17-2.75-.54-3.22-3.1s-1.14-5.16-1.66-7.75c-.26-1.31-.39-2.65-.57-4-.25-1.87-.58-3.73-.73-5.61A96.09,96.09,0,0,1,78.37,82,71.8,71.8,0,0,1,80.26,72a46.17,46.17,0,0,1,5.81-12.82A38.91,38.91,0,0,1,96.43,47.91a42.59,42.59,0,0,1,10.24-5.36,76.58,76.58,0,0,1,13.33-3,22.31,22.31,0,0,1,2.95-.05,72.37,72.37,0,0,1,14.78.91c4.63.78,9.23,1.79,13.77,3a112.19,112.19,0,0,1,11.17,3.74c3.3,1.27,6.5,2.82,9.73,4.26a37.21,37.21,0,0,1,3.77,1.77,4.87,4.87,0,0,1,1.5,1.68c.31.5-.12.95-.6,1a12.92,12.92,0,0,1-3.53.49c-3.4-.3-6.79-.76-10.18-1.24A83.81,83.81,0,0,0,149,54.44a42.48,42.48,0,0,0-10.66,1.65,33,33,0,0,0-7.42,3.19A16.82,16.82,0,0,0,125,65.46a25,25,0,0,0-3.43,12.71c0,1.36,0,2.73,0,4.09Z"/><path class="cls-2" d="M177,94.43c-.17,1.1-.33,2.21-.51,3.31a13.84,13.84,0,0,1-1.83,5.12,15.61,15.61,0,0,1-4.1,4.4,19.81,19.81,0,0,1-8,3.27,18.09,18.09,0,0,1-6.85.18,51.17,51.17,0,0,1-6-1.33,25.72,25.72,0,0,1-5.15-2.27,41.18,41.18,0,0,1-5.71-3.94,26.71,26.71,0,0,1-8-10.35,22.66,22.66,0,0,1-1.93-9.38,16.75,16.75,0,0,1,1.39-5.77c1.65-4,4.85-6.52,8.66-8.13a20,20,0,0,1,11-1.1,33.84,33.84,0,0,1,14.61,6,32.6,32.6,0,0,1,8.57,8.7A23.88,23.88,0,0,1,176,89,21.5,21.5,0,0,1,177,94.43Z"/><path class="cls-2" d="M113.92,215.21l8.91,28.2c-1.13,0-2.16,0-3.19,0-.21,0-.5-.35-.59-.59q-1.32-3.88-2.57-7.78a.85.85,0,0,0-1-.73q-3.49,0-7,0a.87.87,0,0,0-1,.73c-.82,2.57-1.69,5.14-2.5,7.71a.82.82,0,0,1-1,.7c-.9-.05-1.8,0-2.81,0,.1-.38.17-.69.26-1q4.17-13.2,8.33-26.4c.2-.65.48-.86,1.14-.82C112,215.26,112.91,215.21,113.92,215.21Zm-1.8,3.94h-.19l-3.27,12.22h6.74Z"/><path class="cls-2" d="M176.42,215.27v2.84h-10.8v9.08h8.24v3h-8.25v10.16h11.22v3H162.15V215.27Z"/><path class="cls-2" d="M195.23,217.7l-2.05,1.76a6.19,6.19,0,0,0-3.9-2.07c-1.8-.21-3.45.17-4.46,1.79A4,4,0,0,0,185,224a15,15,0,0,0,3.11,2.73c1.42,1,3,1.85,4.41,2.85a7.91,7.91,0,0,1,3.32,4.45c1.7,6.37-3.26,10.64-9,9.94a10.73,10.73,0,0,1-5.58-2.52l1.37-2.32c1.32.65,2.56,1.32,3.85,1.87a4.36,4.36,0,0,0,3.29,0,4.6,4.6,0,0,0,1.86-7.36,18.71,18.71,0,0,0-3-2.37c-1.68-1.18-3.48-2.19-5.07-3.47a7.51,7.51,0,0,1-2.58-8,6.06,6.06,0,0,1,4-4.56,8.77,8.77,0,0,1,8,.69A20,20,0,0,1,195.23,217.7Z"/><path class="cls-2" d="M132.33,243.37h-3.41v-25h-6.81v-3.06h17v3h-6.79Z"/><path class="cls-2" d="M147.72,218.29H141v-3h17v3h-6.81v25.07h-3.4Z"/><path class="cls-2" d="M90.51,240.5h9.6v2.85H87.25V215.27h3.26Z"/></g></g></svg>